<svg xmlns="http://www.w3.org/2000/svg" width="20" height="21" viewBox="0 0 20 21" fill="none">
  <path d="M5.20703 10.5003C5.04127 10.5003 4.8823 10.5662 4.76509 10.6834C4.64788 10.8006 4.58203 10.9596 4.58203 11.1253C4.58203 11.2911 4.64788 11.4501 4.76509 11.5673C4.8823 11.6845 5.04127 11.7503 5.20703 11.7503H5.6237C5.78946 11.7503 5.94843 11.6845 6.06564 11.5673C6.18285 11.4501 6.2487 11.2911 6.2487 11.1253C6.2487 10.9596 6.18285 10.8006 6.06564 10.6834C5.94843 10.5662 5.78946 10.5003 5.6237 10.5003H5.20703ZM4.58203 8.20866C4.58203 8.0429 4.64788 7.88393 4.76509 7.76672C4.8823 7.64951 5.04127 7.58366 5.20703 7.58366H5.6237C5.78946 7.58366 5.94843 7.64951 6.06564 7.76672C6.18285 7.88393 6.2487 8.0429 6.2487 8.20866C6.2487 8.37442 6.18285 8.53339 6.06564 8.6506C5.94843 8.76781 5.78946 8.83366 5.6237 8.83366H5.20703C5.04127 8.83366 4.8823 8.76781 4.76509 8.6506C4.64788 8.53339 4.58203 8.37442 4.58203 8.20866ZM5.20703 4.66699C5.04127 4.66699 4.8823 4.73284 4.76509 4.85005C4.64788 4.96726 4.58203 5.12623 4.58203 5.29199C4.58203 5.45775 4.64788 5.61672 4.76509 5.73393C4.8823 5.85114 5.04127 5.91699 5.20703 5.91699H5.6237C5.78946 5.91699 5.94843 5.85114 6.06564 5.73393C6.18285 5.61672 6.2487 5.45775 6.2487 5.29199C6.2487 5.12623 6.18285 4.96726 6.06564 4.85005C5.94843 4.73284 5.78946 4.66699 5.6237 4.66699H5.20703ZM7.4987 11.1253C7.4987 10.9596 7.56455 10.8006 7.68176 10.6834C7.79897 10.5662 7.95794 10.5003 8.1237 10.5003H8.54036C8.70612 10.5003 8.8651 10.5662 8.98231 10.6834C9.09952 10.8006 9.16536 10.9596 9.16536 11.1253C9.16536 11.2911 9.09952 11.4501 8.98231 11.5673C8.8651 11.6845 8.70612 11.7503 8.54036 11.7503H8.1237C7.95794 11.7503 7.79897 11.6845 7.68176 11.5673C7.56455 11.4501 7.4987 11.2911 7.4987 11.1253ZM8.1237 7.58366C7.95794 7.58366 7.79897 7.64951 7.68176 7.76672C7.56455 7.88393 7.4987 8.0429 7.4987 8.20866C7.4987 8.37442 7.56455 8.53339 7.68176 8.6506C7.79897 8.76781 7.95794 8.83366 8.1237 8.83366H8.54036C8.70612 8.83366 8.8651 8.76781 8.98231 8.6506C9.09952 8.53339 9.16536 8.37442 9.16536 8.20866C9.16536 8.0429 9.09952 7.88393 8.98231 7.76672C8.8651 7.64951 8.70612 7.58366 8.54036 7.58366H8.1237ZM7.4987 5.29199C7.4987 5.12623 7.56455 4.96726 7.68176 4.85005C7.79897 4.73284 7.95794 4.66699 8.1237 4.66699H8.54036C8.70612 4.66699 8.8651 4.73284 8.98231 4.85005C9.09952 4.96726 9.16536 5.12623 9.16536 5.29199C9.16536 5.45775 9.09952 5.61672 8.98231 5.73393C8.8651 5.85114 8.70612 5.91699 8.54036 5.91699H8.1237C7.95794 5.91699 7.79897 5.85114 7.68176 5.73393C7.56455 5.61672 7.4987 5.45775 7.4987 5.29199ZM11.0404 10.5003C10.8746 10.5003 10.7156 10.5662 10.5984 10.6834C10.4812 10.8006 10.4154 10.9596 10.4154 11.1253C10.4154 11.2911 10.4812 11.4501 10.5984 11.5673C10.7156 11.6845 10.8746 11.7503 11.0404 11.7503H11.457C11.6228 11.7503 11.7818 11.6845 11.899 11.5673C12.0162 11.4501 12.082 11.2911 12.082 11.1253C12.082 10.9596 12.0162 10.8006 11.899 10.6834C11.7818 10.5662 11.6228 10.5003 11.457 10.5003H11.0404ZM10.4154 8.20866C10.4154 8.0429 10.4812 7.88393 10.5984 7.76672C10.7156 7.64951 10.8746 7.58366 11.0404 7.58366H11.457C11.6228 7.58366 11.7818 7.64951 11.899 7.76672C12.0162 7.88393 12.082 8.0429 12.082 8.20866C12.082 8.37442 12.0162 8.53339 11.899 8.6506C11.7818 8.76781 11.6228 8.83366 11.457 8.83366H11.0404C10.8746 8.83366 10.7156 8.76781 10.5984 8.6506C10.4812 8.53339 10.4154 8.37442 10.4154 8.20866ZM11.0404 4.66699C10.8746 4.66699 10.7156 4.73284 10.5984 4.85005C10.4812 4.96726 10.4154 5.12623 10.4154 5.29199C10.4154 5.45775 10.4812 5.61672 10.5984 5.73393C10.7156 5.85114 10.8746 5.91699 11.0404 5.91699H11.457C11.6228 5.91699 11.7818 5.85114 11.899 5.73393C12.0162 5.61672 12.082 5.45775 12.082 5.29199C12.082 5.12623 12.0162 4.96726 11.899 4.85005C11.7818 4.73284 11.6228 4.66699 11.457 4.66699H11.0404Z" fill="#D9D9D9"/>
  <path d="M1.66797 17.1663V2.99967C1.66797 2.55765 1.84356 2.13372 2.15612 1.82116C2.46868 1.5086 2.89261 1.33301 3.33464 1.33301H13.3346C13.7767 1.33301 14.2006 1.5086 14.5131 1.82116C14.8257 2.13372 15.0013 2.55765 15.0013 2.99967V17.1663C15.0013 17.3105 14.983 17.4497 14.9488 17.583H16.668C16.7785 17.583 16.8845 17.5391 16.9626 17.461C17.0407 17.3828 17.0846 17.2768 17.0846 17.1663V10.4997C17.0846 10.435 17.0696 10.3712 17.0406 10.3133C17.0117 10.2555 16.9697 10.2052 16.918 10.1663L16.5013 9.85384C16.3687 9.75438 16.281 9.60632 16.2576 9.44223C16.2341 9.27813 16.2768 9.11145 16.3763 8.97884C16.4758 8.84623 16.6238 8.75856 16.7879 8.73512C16.952 8.71168 17.1187 8.75438 17.2513 8.85384L17.668 9.16634C18.088 9.48134 18.3346 9.97467 18.3346 10.4997V17.1663C18.3346 17.6084 18.159 18.0323 17.8465 18.3449C17.5339 18.6574 17.11 18.833 16.668 18.833H13.6996C13.6531 18.8331 13.6067 18.828 13.5613 18.818C13.4871 18.828 13.4113 18.833 13.3346 18.833H10.2096C10.0439 18.833 9.8849 18.7672 9.76769 18.65C9.65048 18.5327 9.58463 18.3738 9.58463 18.208V16.333H7.08463V18.208C7.08463 18.3738 7.01879 18.5327 6.90158 18.65C6.78437 18.7672 6.62539 18.833 6.45963 18.833H3.33464C2.89261 18.833 2.46868 18.6574 2.15612 18.3449C1.84356 18.0323 1.66797 17.6084 1.66797 17.1663ZM3.33464 17.583H5.83463V15.708C5.83463 15.5422 5.90048 15.3833 6.01769 15.2661C6.1349 15.1489 6.29387 15.083 6.45963 15.083H10.2096C10.3754 15.083 10.5344 15.1489 10.6516 15.2661C10.7688 15.3833 10.8346 15.5422 10.8346 15.708V17.583H13.3346C13.4451 17.583 13.5511 17.5391 13.6293 17.461C13.7074 17.3828 13.7513 17.2768 13.7513 17.1663V2.99967C13.7513 2.88917 13.7074 2.78319 13.6293 2.70505C13.5511 2.62691 13.4451 2.58301 13.3346 2.58301H3.33464C3.22413 2.58301 3.11815 2.62691 3.04001 2.70505C2.96187 2.78319 2.91797 2.88917 2.91797 2.99967V17.1663C2.91797 17.2768 2.96187 17.3828 3.04001 17.461C3.11815 17.5391 3.22413 17.583 3.33464 17.583Z" fill="#D9D9D9"/>
</svg>