<svg xmlns="http://www.w3.org/2000/svg" width="81" height="80" viewBox="0 0 81 80" fill="none">
  <path d="M66.8699 72.7881C66.5594 72.7673 66.2448 72.7881 65.9364 72.7881H60.8835C60.9523 72.4214 61.2065 72.3026 61.3815 72.1318C62.6609 70.8816 63.9507 69.6314 65.2342 68.3812C66.2421 67.3944 66.9111 66.1133 67.1449 64.7223C67.4283 63.1908 66.8866 61.8197 66.4886 60.3945C65.1946 55.7542 63.9548 51.0972 62.7172 46.434C62.0608 43.9607 60.5689 42.1583 58.404 40.8665C55.9359 39.4159 53.1854 38.5114 50.3381 38.214C45.4555 37.6759 40.5375 37.531 35.6317 37.7806C32.2874 37.9306 28.9515 38.1785 25.7426 39.2954C21.5482 40.7539 18.4498 43.2002 17.6414 47.8384C17.6101 48.0155 17.5455 48.1884 17.4976 48.3635C16.3266 52.635 15.4785 56.9919 14.0825 61.203C13.1115 64.1305 13.7574 66.6017 16.0307 68.675C17.4663 69.9814 18.8749 71.3171 20.4543 72.784H19.8459C17.9706 72.784 16.0953 72.784 14.2325 72.784C13.5657 72.784 13.1677 73.159 13.0948 73.8258C13.076 73.9749 13.0872 74.1263 13.1277 74.2711C13.1683 74.4159 13.2374 74.551 13.331 74.6687C13.4246 74.7864 13.5407 74.8841 13.6726 74.9562C13.8046 75.0283 13.9496 75.0733 14.0991 75.0885C14.3827 75.1205 14.6684 75.1295 14.9534 75.1156H66.1677C66.4268 75.1253 66.6863 75.1204 66.9449 75.101C67.6325 75.0218 68.0659 74.5613 68.0659 73.932C68.0659 73.2674 67.6263 72.834 66.8699 72.7881ZM47.1856 40.2664C45.5186 42.6292 43.237 43.544 40.5908 43.5836C37.8153 43.6273 35.4379 42.6876 33.6459 40.2497C38.154 39.9385 42.6783 39.9441 47.1856 40.2664ZM58.0581 53.8518C57.5872 59.2027 57.1455 64.5577 56.6933 69.9127C56.6287 70.6878 56.5308 71.4629 56.5078 72.2401C56.4953 72.6944 56.3224 72.7923 55.9036 72.786C54.2367 72.7652 52.5802 72.786 50.9174 72.786C42.5036 72.786 34.0877 72.786 25.6739 72.8069C24.8883 72.8069 24.6591 72.6152 24.5966 71.8192C24.132 65.8162 23.6194 59.8153 23.0943 53.8185C23.0401 53.2059 23.1776 53.0371 23.8111 53.0392C29.3932 53.0663 34.9774 53.0538 40.5616 53.0538C46.1458 53.0538 51.73 53.0663 57.3121 53.0371C57.9893 53.0267 58.1143 53.2205 58.0581 53.8518ZM58.9603 71.0316C59.0874 69.4626 59.2083 67.8936 59.3395 66.3267C59.7313 61.6947 60.1355 57.0627 60.5168 52.4308C60.6252 51.1056 60.2251 50.7076 58.8728 50.7076H22.39C20.8648 50.7076 20.5147 51.0847 20.6439 52.6308C21.1412 58.5039 21.6413 64.3778 22.1441 70.2523C22.1671 70.5086 22.1712 70.767 22.1921 71.1879C21.4982 70.5503 20.8981 70.0002 20.3022 69.448C19.2916 68.5124 18.2685 67.5894 17.2809 66.6309C16.1036 65.487 15.6306 64.0555 16.1265 62.5094C17.6059 57.9421 18.5603 53.2392 19.8313 48.6198C19.8456 48.5691 19.8567 48.5176 19.8646 48.4656C20.4647 44.7796 22.8672 42.7709 26.2135 41.6228C27.6559 41.113 29.1454 40.7479 30.6601 40.5331C30.9664 40.4914 31.1747 40.5018 31.3518 40.831C33.3417 44.5441 36.6631 45.9381 40.6533 45.9256C43.7392 45.9256 46.4396 44.8192 48.4899 42.4042C48.7733 42.0687 49.0963 41.7187 49.2317 41.3186C49.5234 40.456 50.0652 40.4852 50.8007 40.6331C52.9531 41.0498 55.0285 41.652 56.9454 42.7376C57.8273 43.2098 58.6026 43.8585 59.2231 44.6431C59.8436 45.4278 60.296 46.3317 60.5522 47.2987C61.8629 51.9369 62.8838 56.6502 64.3028 61.2592C64.5966 62.224 65.0238 63.1616 64.8612 64.2097C64.7087 65.1632 64.2647 66.0461 63.5902 66.7372C62.1733 68.2562 60.7898 69.8106 59.3937 71.3504L58.9603 71.0316ZM42.5223 65.935C41.8764 65.9162 41.2284 65.935 40.5804 65.935C39.9323 65.935 39.2843 65.9204 38.6363 65.935C37.9091 65.9537 37.4778 66.3517 37.4299 66.9768C37.4092 67.1318 37.4217 67.2895 37.4665 67.4393C37.5114 67.5892 37.5876 67.7278 37.69 67.846C37.7924 67.9642 37.9188 68.0593 38.0607 68.1249C38.2027 68.1906 38.357 68.2254 38.5134 68.227C39.8844 68.277 41.2562 68.277 42.6286 68.227C42.7858 68.2265 42.9411 68.1926 43.0841 68.1275C43.2271 68.0623 43.3546 67.9674 43.4581 67.8492C43.5616 67.7309 43.6388 67.5919 43.6843 67.4415C43.7299 67.291 43.7429 67.1326 43.7225 66.9768C43.6788 66.3517 43.2454 65.9558 42.5223 65.935ZM40.5449 64.366C40.9502 64.3644 41.3395 64.208 41.6332 63.9287C41.9268 63.6494 42.1026 63.2683 42.1244 62.8637C42.1285 62.6603 42.0925 62.4582 42.0185 62.2688C41.9445 62.0794 41.8339 61.9064 41.693 61.7598C41.5522 61.6131 41.3838 61.4956 41.1975 61.414C41.0113 61.3325 40.8108 61.2883 40.6075 61.2842C40.4041 61.2801 40.202 61.3161 40.0126 61.3901C39.8232 61.4641 39.6502 61.5747 39.5036 61.7156C39.3569 61.8564 39.2394 62.0248 39.1578 62.2111C39.0762 62.3973 39.0321 62.5978 39.028 62.8011C39.0345 63.206 39.1949 63.5931 39.4767 63.8838C39.7585 64.1745 40.1405 64.3469 40.5449 64.366Z" fill="#686868"/>
  <path d="M42.2229 7.53214C36.274 7.57381 32.6381 8.75524 30.0439 12.21C28.2936 14.5416 27.4185 17.2357 26.8559 20.0612C26.2933 22.8866 26.3517 25.7975 26.0662 28.6625C25.7211 32.0564 24.5788 35.3206 22.7323 38.189C22.2489 38.9516 21.578 39.1392 20.9654 38.7308C20.3528 38.3224 20.2882 37.7056 20.757 36.9555C22.8407 33.6216 23.8138 29.9711 23.9096 26.0413C24.0075 21.9761 24.5347 17.9734 26.2016 14.204C28.775 8.39269 33.2965 5.45264 39.5933 5.22969C44.3315 5.05675 48.6114 6.19234 51.8994 9.87C54.2581 12.5017 55.4458 15.6772 56.1792 19.0694C56.8252 22.0552 56.846 25.0995 57.0856 28.1229C57.3336 31.2254 58.3629 34.0842 59.9611 36.745C60.0007 36.8117 60.0465 36.8742 60.0882 36.9409C60.5403 37.6931 60.4632 38.3244 59.8694 38.7162C59.2756 39.1079 58.59 38.9245 58.1025 38.1723C57.0878 36.5755 56.2857 34.853 55.7167 33.0486C54.9728 30.7566 54.6748 28.4021 54.6123 26.0017C54.5102 22.6678 54.1185 19.3798 52.9454 16.2272C50.7617 10.368 46.659 7.52589 42.2229 7.53214Z" fill="#686868"/>
  <path d="M50.8726 18.159C50.6934 17.211 50.185 16.9213 49.2432 17.0943C48.9869 17.1401 48.7306 17.1776 48.4743 17.2193C46.7657 17.5027 45.3488 16.9672 44.2216 15.6753C43.0422 14.3293 42.5963 14.348 41.4545 15.7566C41.0944 16.2014 40.7083 16.6244 40.298 17.0234C38.7165 18.5507 36.8392 19.2696 34.6284 19.0279C33.5756 18.884 32.546 18.6039 31.5654 18.1944C30.6132 17.8319 30.0006 18.1944 29.7922 19.1717C29.6234 19.9656 29.6172 20.7698 29.5547 21.6992C29.6318 22.4284 29.6755 23.2869 29.8214 24.1287C30.459 27.8564 31.9488 31.1777 34.7222 33.8094C38.0831 36.9995 42.4734 37.2099 45.7822 34.0865C50.3621 29.765 52.0457 24.3787 50.8726 18.159ZM48.939 22.0513C48.6327 26.0457 47.3137 29.5879 44.2382 32.2966C41.7899 34.4595 39.0624 34.5032 36.5995 32.3467C34.0533 30.1192 32.8073 27.1646 32.1572 23.9141C32.0233 23.0949 31.9412 22.2682 31.9113 21.4387C31.8801 21.022 31.9426 20.8136 32.4635 20.9553C36.4224 22.07 39.775 21.0595 42.5463 18.0611C42.8172 17.7673 42.9755 17.7319 43.2881 18.0069C44.73 19.2759 46.4344 19.7634 48.3285 19.5863C48.716 19.5509 48.8285 19.6676 48.8515 20.0322C48.8952 20.7032 49.0015 21.372 48.939 22.0513Z" fill="#686868"/>
  <path d="M39.0277 62.8014C39.0318 62.5981 39.0759 62.3976 39.1575 62.2113C39.2391 62.0251 39.3565 61.8567 39.5032 61.7158C39.6499 61.575 39.8228 61.4644 40.0122 61.3904C40.2016 61.3164 40.4038 61.2804 40.6071 61.2845C40.8104 61.2886 41.0109 61.3327 41.1971 61.4143C41.3834 61.4959 41.5518 61.6134 41.6926 61.76C41.8335 61.9067 41.9441 62.0797 42.0181 62.2691C42.0921 62.4585 42.1281 62.6606 42.124 62.8639C42.1157 63.2745 41.9446 63.665 41.6484 63.9495C41.3522 64.2339 40.9552 64.3891 40.5446 64.3808C40.134 64.3725 39.7435 64.2015 39.459 63.9053C39.1745 63.6091 39.0194 63.212 39.0277 62.8014Z" fill="#FEFEFE"/>
  <path d="M42.6303 68.2418C41.2592 68.2904 39.8875 68.2904 38.5151 68.2418C38.3587 68.2402 38.2044 68.2054 38.0624 68.1397C37.9205 68.074 37.7941 67.9789 37.6917 67.8607C37.5892 67.7425 37.5131 67.6039 37.4682 67.4541C37.4234 67.3043 37.4109 67.1466 37.4316 66.9916C37.4795 66.354 37.9108 65.9643 38.638 65.9497C39.286 65.931 39.934 65.9497 40.582 65.9497C41.2301 65.9497 41.8781 65.9352 42.524 65.9497C43.247 65.9706 43.6804 66.3665 43.7242 67.0041C43.7427 67.159 43.7283 67.316 43.6818 67.4649C43.6353 67.6138 43.5579 67.7512 43.4546 67.8681C43.3513 67.985 43.2245 68.0787 43.0824 68.1431C42.9403 68.2075 42.7863 68.2411 42.6303 68.2418Z" fill="#FEFEFE"/>
  <path d="M42.6303 68.2418C41.2592 68.2904 39.8875 68.2904 38.5151 68.2418C38.3587 68.2402 38.2044 68.2054 38.0624 68.1397C37.9205 68.074 37.7941 67.9789 37.6917 67.8607C37.5892 67.7425 37.5131 67.6039 37.4682 67.4541C37.4234 67.3043 37.4109 67.1466 37.4316 66.9916C37.4795 66.354 37.9108 65.9643 38.638 65.9497C39.286 65.931 39.934 65.9497 40.582 65.9497C41.2301 65.9497 41.8781 65.9352 42.524 65.9497C43.247 65.9706 43.6804 66.3665 43.7242 67.0041C43.7427 67.159 43.7283 67.316 43.6818 67.4649C43.6353 67.6138 43.5579 67.7512 43.4546 67.8681C43.3513 67.985 43.2245 68.0787 43.0824 68.1431C42.9403 68.2075 42.7863 68.2411 42.6303 68.2418Z" fill="#686868"/>
  <path d="M42.124 62.8639C42.1157 63.2745 41.9446 63.665 41.6484 63.9495C41.3522 64.2339 40.9552 64.3891 40.5446 64.3808C40.134 64.3725 39.7435 64.2015 39.459 63.9053C39.1745 63.6091 39.0194 63.212 39.0277 62.8014C39.0318 62.5981 39.0759 62.3976 39.1575 62.2113C39.2391 62.0251 39.3565 61.8567 39.5032 61.7158C39.6499 61.575 39.8228 61.4644 40.0122 61.3904C40.2016 61.3164 40.4038 61.2804 40.6071 61.2845C40.8104 61.2886 41.0109 61.3327 41.1971 61.4143C41.3834 61.4959 41.5518 61.6134 41.6926 61.76C41.8335 61.9067 41.9441 62.0797 42.0181 62.2691C42.0921 62.4585 42.1281 62.6606 42.124 62.8639Z" fill="#686868"/>
</svg>