<svg xmlns="http://www.w3.org/2000/svg" width="64" height="63" viewBox="0 0 64 63" fill="none">
  <path d="M53.9062 0H10.5938C5.1572 0 0.75 4.4072 0.75 9.84375V53.1562C0.75 58.5928 5.1572 63 10.5938 63H53.9062C59.3428 63 63.75 58.5928 63.75 53.1562V9.84375C63.75 4.4072 59.3428 0 53.9062 0Z" fill="white"/>
  <path d="M23.5875 47.25H16.8937V26.1844H23.5875V47.25ZM20.2406 23.2313C18.075 23.2313 16.5 21.6562 16.5 19.4906C16.5 17.325 18.2719 15.75 20.2406 15.75C22.4063 15.75 23.9813 17.325 23.9813 19.4906C23.9813 21.6562 22.4063 23.2313 20.2406 23.2313ZM48 47.25H41.3063V35.8313C41.3063 32.4844 39.9281 31.5 37.9594 31.5C35.9906 31.5 34.0219 33.075 34.0219 36.0281V47.25H27.3281V26.1844H33.6281V29.1375C34.2187 27.7594 36.5812 25.5938 39.9281 25.5938C43.6687 25.5938 47.6063 27.7594 47.6063 34.2562V47.25H48Z" fill="black"/>
</svg>