<svg xmlns="http://www.w3.org/2000/svg" width="80" height="80" viewBox="0 0 80 80" fill="none">
  <path d="M13.0098 24.7602C11.6866 26.4271 11.4574 28.3378 11.7846 30.3486C12.4722 34.5742 15.3435 36.6371 19.1774 37.7268C20.861 38.2061 22.58 37.9998 24.2886 38.0602C24.6512 38.0727 24.7053 37.8664 24.7741 37.6018C25.3804 35.1514 27.0182 33.4345 28.8893 31.9051C29.1441 31.6965 29.47 31.5951 29.7981 31.6223C30.1263 31.6495 30.431 31.8032 30.6479 32.0509C30.7625 32.1759 30.8505 32.3229 30.9065 32.483C30.9625 32.6431 30.9854 32.8129 30.9737 32.9821C30.962 33.1513 30.916 33.3163 30.8385 33.4672C30.761 33.618 30.6536 33.7515 30.5229 33.8595C29.7561 34.5617 28.9602 35.2306 28.3351 36.0703C26.7786 38.154 26.7869 39.9813 28.3851 42.0317C28.7018 42.4484 29.081 42.8026 29.4144 43.2006C29.9124 43.7986 29.8749 44.5237 29.3394 45.0155C29.2226 45.1299 29.0842 45.2198 28.9322 45.2799C28.7802 45.3401 28.6177 45.3693 28.4543 45.3658C28.2908 45.3623 28.1298 45.3262 27.9805 45.2596C27.8312 45.193 27.6967 45.0972 27.5849 44.978C26.4764 43.9361 25.5388 42.7526 25.0491 41.2982C24.8574 40.7335 24.5907 40.596 24.049 40.6314C21.1027 40.8231 18.2689 40.4356 15.5664 39.1416C9.29043 36.137 8.19442 29.5339 9.6509 25.5853C10.1501 24.1865 10.9919 22.935 12.0992 21.9452C12.2888 21.7764 12.4847 21.6472 12.493 21.3201C12.5993 17.2424 14.8955 14.7941 18.5919 13.6293C20.0025 13.1855 21.186 12.6583 22.2945 11.654C23.7885 10.3038 25.7034 9.95998 27.6954 10.2517C27.9156 10.3014 28.1454 10.2888 28.3589 10.2152C28.5724 10.1415 28.7611 10.0099 28.9039 9.83496C31.7856 6.80948 35.3174 6.35941 39.1555 7.40541C40.1369 7.6742 40.9745 7.75547 41.9601 7.34499C43.8854 6.53861 45.8295 6.75114 47.6631 7.73255C47.8616 7.84011 48.0795 7.90711 48.3042 7.92964C48.5288 7.95218 48.7557 7.9298 48.9716 7.86382C51.3259 7.31884 53.8002 7.72147 55.8602 8.98482C56.382 9.28114 56.8355 9.68402 57.1913 10.1672C57.5471 10.6505 57.7971 11.2032 57.9251 11.7894C58.0418 12.3145 58.2752 12.4333 58.7586 12.4729C60.3317 12.6 61.8195 13.0313 63.1343 13.9481C64.9033 15.1983 65.7534 16.9882 66.0847 19.0572C66.1075 19.2444 66.1685 19.425 66.2638 19.5877C66.3591 19.7504 66.4868 19.8918 66.639 20.0032C68.4518 21.4409 70.0416 23.0641 70.775 25.3332C71.2524 26.7801 71.1729 28.353 70.5521 29.7443C70.3742 30.142 70.3403 30.5892 70.4562 31.0091C70.873 32.7948 71.0709 34.6034 70.5917 36.4037C69.9666 38.7374 68.3809 40.2397 66.216 41.1294C65.5742 41.3941 65.4304 41.7358 65.3638 42.3796C64.9325 46.4594 63.3134 49.8808 59.5983 51.9645C56.877 53.4876 53.9453 53.5293 50.9844 52.7458C50.1781 52.5375 49.8176 51.8728 50.0301 51.1518C50.2427 50.4309 50.8761 50.0933 51.697 50.2996C53.5723 50.7705 55.458 50.8414 57.3 50.1913C60.2505 49.1494 61.7174 46.8032 62.5258 43.959C63.3593 41.0148 62.6258 38.4207 60.5901 36.1807C59.2057 34.6943 57.5352 33.5029 55.6789 32.6781C54.7329 32.2385 54.4537 31.3737 55.008 30.6653C55.4018 30.1611 55.9269 29.9798 56.527 30.2486C60.2651 31.9738 63.378 34.3575 64.8616 38.3748C65.045 38.8707 65.2346 38.777 65.57 38.6082C67.6537 37.5664 68.5664 35.739 68.2538 33.2344C68.2364 32.9752 68.1967 32.718 68.135 32.4656C67.6829 30.9966 67.6454 29.611 68.333 28.1316C68.8331 27.0585 68.3726 25.8916 67.7475 24.8831C66.9244 23.5559 65.7909 22.5286 64.5428 21.6285C64.2654 21.4445 64.0353 21.1977 63.8713 20.908C63.7073 20.6183 63.614 20.2941 63.5989 19.9615C63.3343 16.8611 61.5298 15.1983 58.2752 14.9858C57.7834 14.9524 57.2875 14.9691 56.7958 14.9316C55.8706 14.8587 55.4476 14.3669 55.4914 13.4522C55.556 12.0561 55.1163 11.331 53.8245 10.7914C52.8376 10.3822 51.7776 10.1787 50.7094 10.1933C49.2112 10.1933 48.0861 10.881 47.3755 12.2207C46.8715 13.2177 46.5704 14.3049 46.49 15.4192C46.3983 16.3006 45.8649 16.8298 45.1085 16.7694C44.3521 16.709 43.9062 16.1318 43.9542 15.2233C44.05 13.4272 44.523 11.7353 45.5815 10.2663C45.9732 9.72244 45.7315 9.64118 45.2856 9.562C44.0714 9.33825 42.8173 9.56889 41.7622 10.21C41.4888 10.3806 41.1779 10.4818 40.8564 10.5047C40.535 10.5276 40.2129 10.4715 39.9181 10.3413C38.1512 9.67452 36.328 9.28904 34.4277 9.59742C33.5915 9.73088 32.7905 10.0307 32.0722 10.4791C31.3539 10.9276 30.7329 11.5156 30.2458 12.2082C29.6874 12.9646 29.0685 13.173 28.1621 12.95C25.7909 12.3666 23.8594 13.0417 22.4946 15.1254C22.3508 15.3748 22.1336 15.5739 21.8726 15.6954C21.6116 15.817 21.3195 15.8551 21.036 15.8046C17.8897 15.4775 14.7642 18.5884 15.0413 21.7472C15.3268 25.0186 17.125 26.8522 20.7881 27.6065C21.0673 27.6648 21.3506 27.7023 21.6215 27.7711C21.8648 27.8255 22.0856 27.9527 22.2546 28.1359C22.4237 28.3191 22.5328 28.5494 22.5675 28.7963C22.6633 29.2984 22.5008 29.7881 22.0612 30.0152C21.0839 30.5194 21.1089 31.3529 21.2277 32.226C21.2923 32.6844 21.4507 33.1303 21.559 33.5845C21.7361 34.32 21.3902 34.9743 20.713 35.191C20.4022 35.2838 20.0673 35.2509 19.7805 35.0993C19.4937 34.9477 19.2779 34.6896 19.1795 34.3805C18.7002 33.0448 18.4252 31.6717 18.7627 30.259C18.8753 29.8068 18.7627 29.6943 18.3793 29.5526C16.5957 28.8963 15.008 27.9399 13.9016 26.3396C13.5765 25.8541 13.3223 25.3124 13.0098 24.7602Z" fill="#686868"/>
  <path d="M56.0762 45.6322C55.7949 45.6051 55.5073 45.6489 55.2219 45.6489C53.3758 45.6489 51.7963 45.1321 50.8191 43.4027C50.5774 42.986 50.5753 42.7776 51.0879 42.5692C53.1373 41.753 54.8003 40.189 55.7407 38.1935C56.1574 37.333 55.9928 36.5995 55.299 36.2432C54.6051 35.8869 53.8821 36.187 53.4716 37.0246C53.0646 37.8849 52.4746 38.6459 51.743 39.2545C51.0113 39.8631 50.1555 40.3046 49.2355 40.5481C45.3578 41.6712 41.6406 41.2419 38.1234 39.2333C36.8315 38.4936 35.7147 37.5247 34.6312 36.5099C34.5135 36.3877 34.3725 36.2904 34.2164 36.224C34.0602 36.1575 33.8923 36.1233 33.7227 36.1233C33.553 36.1233 33.3851 36.1575 33.229 36.224C33.0729 36.2904 32.9318 36.3877 32.8142 36.5099C32.31 37.0288 32.3141 37.7372 32.8455 38.3269C33.045 38.5669 33.2723 38.7823 33.5227 38.9687C33.9873 39.2875 34.0269 39.5938 33.7831 40.1293C31.7349 44.5737 29.7221 49.0348 27.6988 53.4918C27.0196 54.992 27.5301 55.7963 29.1574 55.7984C30.8618 55.7984 32.569 55.7984 34.279 55.7984C34.3061 56.1422 34.1353 56.3526 34.0332 56.5839C31.9023 61.4777 29.7714 66.3702 27.6405 71.2612C27.2925 72.0613 27.4675 72.7406 28.0843 73.1011C28.7011 73.4615 29.297 73.3094 29.8575 72.6406C30.5264 71.8467 31.1806 71.0383 31.8411 70.236C37.1906 63.7406 42.5386 57.2465 47.8853 50.7538C48.302 50.2517 48.5312 49.7391 48.2395 49.1202C47.9478 48.5014 47.3686 48.3764 46.7331 48.3806C45.1231 48.3889 43.5124 48.3889 41.901 48.3806C41.6927 48.3806 41.451 48.4493 41.2134 48.2785C42.0052 46.8199 42.7929 45.3968 43.5534 43.9569C43.7159 43.6506 43.9368 43.6756 44.1972 43.684C45.2391 43.7194 46.2809 43.7527 47.3061 43.5652C47.8207 43.4714 48.0749 43.584 48.3041 44.0861C49.9273 47.6659 53.0799 48.416 56.1283 48.1638C56.4379 48.1217 56.7211 47.967 56.9238 47.7293C57.1266 47.4915 57.2347 47.1874 57.2275 46.8751C57.2203 46.5627 57.0982 46.264 56.8847 46.0358C56.6712 45.8077 56.3811 45.6663 56.0699 45.6385L56.0762 45.6322ZM44.3806 50.9726L34.1498 63.385L33.9623 63.2266L37.3316 55.4879C37.9859 53.9835 37.4733 53.1959 35.8251 53.1959H30.766C30.7285 52.8729 30.9056 52.6646 31.0098 52.4374C32.6309 48.8535 34.2624 45.2738 35.8709 41.6837C36.0793 41.2065 36.2356 41.0752 36.7419 41.3982C38.0709 42.2197 39.5167 42.8351 41.0301 43.2235C40.0153 45.0988 39.0235 46.9116 38.0421 48.7348C37.3233 50.0683 37.8692 50.958 39.4007 50.9643C41.003 50.9768 42.6074 50.9726 44.3806 50.9726Z" fill="#686868"/>
  <path d="M45.3622 32.7506C45.7855 33.4413 46.1301 34.1773 46.3895 34.9447C46.6312 35.7344 46.3311 36.4033 45.6373 36.6637C44.9434 36.9242 44.2516 36.6095 43.9703 35.8115C43.3015 33.8424 41.9596 32.4443 40.276 31.3379C37.661 29.6189 36.0899 27.1518 35.0981 24.2534C34.9189 23.7346 34.8898 23.2408 35.269 22.7949C35.9212 22.0177 37.0797 22.2219 37.4527 23.2116C37.7102 23.9955 38.02 24.7612 38.3799 25.5036C39.9447 28.4208 42.2201 30.2585 45.6998 30.0877C47.7834 29.9897 49.4129 28.8937 50.8214 27.431C51.5424 26.6481 52.1715 25.7855 52.6967 24.8598C53.103 24.1784 53.8073 23.993 54.4324 24.3389C54.5822 24.4183 54.7143 24.5274 54.8207 24.6595C54.9271 24.7916 55.0054 24.9439 55.051 25.1072C55.0966 25.2706 55.1085 25.4415 55.086 25.6096C55.0635 25.7777 55.007 25.9394 54.92 26.085C53.153 29.273 50.7339 31.6817 47.0396 32.5047C46.5249 32.6297 45.979 32.6672 45.3622 32.7506Z" fill="#686868"/>
  <path d="M34.2896 21.5532C33.3401 21.4124 32.4406 21.0372 31.6725 20.4614C31.36 20.2364 31.1683 20.253 30.8807 20.5093C28.3804 22.743 25.4007 23.4389 22.1419 23.191C21.4177 23.1298 20.6972 23.031 19.9832 22.8951C19.0622 22.7284 18.5872 22.1137 18.733 21.3386C18.8789 20.5635 19.5665 20.1947 20.4687 20.3655C22.5086 20.7469 24.5402 20.874 26.5363 20.1572C26.9705 19.9961 27.3931 19.8053 27.8011 19.5863C28.3533 19.2945 28.9596 18.9862 29.2763 18.4715C29.6347 17.8943 28.8763 17.4693 28.7804 16.9088C28.7158 16.5316 28.52 16.1774 28.4345 15.8003C28.3593 15.4805 28.4094 15.144 28.5745 14.86C28.7396 14.576 29.0071 14.3659 29.3222 14.2729C29.6233 14.1809 29.9479 14.2047 30.2324 14.3396C30.5168 14.4745 30.7407 14.7108 30.8599 15.0022C30.9953 15.3106 31.0683 15.6419 31.185 15.9586C31.4231 16.6485 31.821 17.2723 32.346 17.7793C32.871 18.2862 33.5085 18.6619 34.2063 18.8757C34.4271 18.9507 34.6584 18.9966 34.8751 19.0841C35.5523 19.3362 35.917 19.9176 35.8044 20.5197C35.6877 21.1469 35.0918 21.5866 34.2896 21.5532Z" fill="#686868"/>
  <path d="M51.8832 16.6527C57.4924 17.1632 60.5867 20.6909 61.6598 25.8354C61.7193 26.153 61.6557 26.4814 61.4818 26.7537C61.308 27.0261 61.0369 27.222 60.7237 27.3016C60.4105 27.3812 60.0788 27.3386 59.796 27.1823C59.5131 27.0261 59.3004 26.768 59.201 26.4605C59.0906 26.1459 59.0302 25.8125 58.9406 25.4874C57.8842 21.6431 55.6338 19.6928 51.6749 19.2011C50.731 19.0844 50.2163 18.5426 50.3122 17.7571C50.408 16.9715 50.9685 16.5819 51.8832 16.6527Z" fill="#686868"/>
  <path d="M37.8599 15.1234C40.875 15.6693 44.3588 17.4384 45.5319 21.9015C45.6608 22.3761 45.7589 22.8584 45.8257 23.3455C45.8853 23.6822 45.8091 24.0288 45.6139 24.3095C45.4187 24.5902 45.1203 24.7823 44.7839 24.8437C44.0942 24.9749 43.5045 24.5665 43.3045 23.8018C43.2253 23.5018 43.1899 23.1913 43.1253 22.8892C42.5252 20.1179 40.7624 18.4968 38.0787 17.7905C37.8287 17.7259 37.5682 17.6884 37.3265 17.6009C37.0277 17.5024 36.776 17.2967 36.6201 17.0234C36.4642 16.7502 36.4152 16.4288 36.4826 16.1215C36.5439 15.812 36.7199 15.5372 36.9754 15.3521C37.2308 15.167 37.5468 15.0853 37.8599 15.1234Z" fill="#686868"/>
</svg>