<svg xmlns="http://www.w3.org/2000/svg" width="80" height="80" viewBox="0 0 80 80" fill="none">
  <path d="M51.7588 34.2181C51.7067 33.5721 51.6317 32.9262 51.54 32.2844C51.0691 28.9693 50.5461 25.6626 50.1273 22.3433C49.746 19.3261 47.7832 17.1175 44.7994 16.5424C43.4925 16.3127 42.1673 16.2025 40.8404 16.2132C40.9428 16.1235 41.0546 16.0453 41.1738 15.9798C43.07 15.3547 44.1368 13.9399 44.716 12.1271C45.5849 9.35792 44.1264 6.67208 41.4301 5.94489C38.4984 5.15518 35.6771 6.695 35.0208 9.44335C34.4665 11.7562 35.8376 14.6254 38.0421 15.736C38.2967 15.8296 38.5257 15.9817 38.7109 16.1798C37.7358 16.2527 36.7815 16.3173 35.8292 16.3882C32.3766 16.6695 29.9533 19.0261 29.5887 22.4225C29.4574 23.6352 29.2574 24.8395 29.0949 26.048C28.7219 28.8526 28.3051 31.6531 28.0822 34.4743C27.9905 35.6433 28.5385 36.4705 29.5199 37.0289C30.7701 37.7394 31.9745 37.4727 33.3809 36.1475C33.2497 38.9896 33.108 41.7109 33.0038 44.4322C32.8871 47.468 32.6371 50.4998 32.7642 53.5398C32.7746 53.8274 32.7642 53.9837 32.4225 53.9566C32.1912 53.9357 31.9557 53.9566 31.7203 53.9566C30.4013 53.9566 29.9804 54.3733 29.9804 55.6631C29.9804 61.2501 29.9804 66.8357 29.9804 72.4199C29.9804 73.6826 30.3971 74.1076 31.6473 74.1076C37.1551 74.1076 42.6623 74.1076 48.1687 74.1076C49.4626 74.1076 49.8689 73.6909 49.871 72.3657C49.871 68.6498 49.871 64.9347 49.871 61.2202C49.871 59.297 49.8835 57.3738 49.871 55.4526C49.871 54.44 49.3814 53.9795 48.3854 53.9649C47.8978 53.9649 47.4102 53.9649 46.9935 53.9649C46.9935 48.0077 46.5538 42.1401 46.3371 36.1559C46.5455 36.3517 46.6643 36.4726 46.7893 36.5893C47.2208 37.0099 47.7735 37.2845 48.3694 37.3742C48.9653 37.4639 49.5744 37.3643 50.1106 37.0893C51.3358 36.5226 51.8838 35.5995 51.7588 34.2181ZM37.4587 10.5352C37.4587 9.26832 38.5484 8.29525 39.9591 8.30984C41.3697 8.32442 42.4365 9.31208 42.4074 10.581C42.3719 12.0854 41.103 13.6253 39.907 13.6107C38.7109 13.5961 37.4587 12.0021 37.4587 10.5352ZM46.5872 56.4924C47.2123 56.4924 47.304 56.6903 47.2977 57.2425C47.2664 59.5012 47.2852 61.7599 47.2852 64.0185C47.2852 66.2772 47.2685 68.588 47.2852 70.8717C47.2852 71.3905 47.1914 71.5781 46.6184 71.5739C42.1552 71.5489 37.6906 71.5489 33.2247 71.5739C32.6579 71.5739 32.5537 71.3968 32.5558 70.8738C32.5767 66.3314 32.5767 61.7883 32.5558 57.2446C32.5558 56.6987 32.6392 56.4882 33.2622 56.4924C37.7073 56.5229 42.149 56.5229 46.5872 56.4924ZM39.2944 53.6148C39.4777 51.3416 39.6465 49.0683 39.8236 46.7929L39.8986 46.8075C40.0695 49.0558 40.2237 51.3061 40.4258 53.5502C40.4716 54.0587 40.1778 53.9982 39.9257 53.942C39.7007 53.8941 39.236 54.2441 39.2881 53.6148H39.2944ZM48.8792 34.8369C48.6167 34.8577 48.5396 34.6848 48.4979 34.4493C48.302 33.3263 48.0812 32.2052 47.8874 31.0821C47.4026 28.4026 46.9164 25.723 46.4288 23.0434C46.4059 22.9163 46.3663 22.7913 46.3392 22.6642C46.1829 21.9495 45.7141 21.5994 45.0057 21.6036C44.3368 21.6036 43.8409 22.1558 43.8138 22.8934C43.7638 24.2686 43.7221 25.6459 43.7076 27.0232C43.6721 30.6592 43.5825 34.2952 43.7576 37.9311C43.977 42.4721 44.1951 47.0124 44.4118 51.552C44.4306 51.9417 44.4452 52.3313 44.4514 52.721C44.4514 53.2314 44.366 53.6628 43.7117 53.6711C43.0575 53.6794 42.9345 53.2544 42.9012 52.7501C42.6928 49.5642 42.4844 46.3762 42.2657 43.1903C42.1017 40.8594 41.9149 38.5298 41.7052 36.2017C41.6051 35.0994 41.203 34.7786 40.0862 34.7723H39.5423C38.5234 34.7848 38.0983 35.1182 38.0108 36.1204C37.7525 39.0376 37.5156 41.9623 37.3003 44.8947C37.1107 47.4847 36.969 50.0789 36.8065 52.6689C36.7731 53.1919 36.6856 53.6774 35.9939 53.669C35.2208 53.6586 35.2312 53.1023 35.2562 52.5688C35.4229 48.8058 35.5646 45.0427 35.7771 41.2817C36.123 35.1807 36.0668 29.0777 35.8876 22.9746C35.8647 22.1808 35.3854 21.6432 34.6916 21.5953C34.0373 21.5515 33.4872 21.9766 33.3518 22.7392C32.8267 25.6751 32.3287 28.6151 31.8224 31.5551C31.664 32.474 31.5056 33.395 31.3535 34.316C31.3098 34.5848 31.2681 34.8973 30.9368 34.8494C30.5576 34.7952 30.6889 34.4577 30.7284 34.2139C31.066 31.6427 31.4202 29.0714 31.7474 26.5044C31.9057 25.2687 32.0328 24.029 32.1412 22.7871C32.312 20.8535 33.6956 19.3032 35.6105 19.0365C38.4173 18.6323 41.2675 18.6323 44.0743 19.0365C46.0204 19.3241 47.3685 20.7139 47.5623 22.6683C47.9374 26.4418 48.5187 30.1841 49.1105 33.9201C49.1355 34.0743 49.1417 34.2306 49.1626 34.3848C49.1751 34.6119 49.1542 34.814 48.8729 34.8369H48.8792Z" fill="#686868"/>
  <path d="M70.2493 42.7188C64.8485 42.7188 59.4469 42.7188 54.0447 42.7188C52.6132 42.7188 52.2402 43.0896 52.2402 44.5086V71.8566C52.2402 73.3506 52.5861 73.7028 54.053 73.7048H70.2576C71.7579 73.7048 72.1017 73.3652 72.1038 71.8858V44.5378C72.0954 43.0792 71.7349 42.7188 70.2493 42.7188ZM69.5575 70.4043C69.5575 71.0023 69.4283 71.1815 68.8012 71.1774C64.3838 71.1482 59.9671 71.1482 55.5512 71.1774C54.9261 71.1774 54.7802 71.0044 54.7844 70.4002C54.8115 66.3204 54.799 62.2426 54.799 58.1628C54.799 54.083 54.8136 50.0553 54.7844 46.0026C54.7844 45.4088 54.9386 45.2775 55.5157 45.2796C59.9609 45.306 64.406 45.306 68.8512 45.2796C69.445 45.2796 69.5659 45.4338 69.5638 46.0068C69.5415 54.14 69.5395 62.2725 69.5575 70.4043Z" fill="#686868"/>
  <path d="M26.0457 59.3848C20.4893 59.3848 14.9328 59.3848 9.37642 59.3848C8.19291 59.3848 7.76576 59.8015 7.76367 60.96C7.76367 64.8023 7.76367 68.6445 7.76367 72.4868C7.76367 73.6974 8.1804 74.0933 9.4181 74.0933C12.1699 74.0933 14.9217 74.0933 17.6736 74.0933C20.4254 74.0933 23.1772 74.0933 25.929 74.0933C27.2146 74.0933 27.6209 73.6995 27.6209 72.4451C27.6209 68.6279 27.6209 64.8078 27.6209 60.985C27.6209 59.8265 27.2021 59.3952 26.0457 59.3848ZM24.3913 71.5658C22.1618 71.5346 19.9302 71.5533 17.6986 71.5533C15.467 71.5533 13.1854 71.5408 10.9288 71.5533C10.4724 71.5533 10.3037 71.4721 10.3037 70.9657C10.3307 68.1382 10.3245 65.3107 10.3037 62.4832C10.3037 62.0664 10.3995 61.906 10.8558 61.906C15.3968 61.9227 19.9371 61.9227 24.4767 61.906C24.9851 61.906 25.0705 62.0852 25.0664 62.5311C25.0497 65.3086 25.0455 68.084 25.0664 70.8657C25.081 71.4158 24.9434 71.5825 24.3892 71.5742L24.3913 71.5658Z" fill="#686868"/>
</svg>