<svg width="63" height="63" viewBox="0 0 63 63" fill="none" xmlns="http://www.w3.org/2000/svg">
<path d="M53.1562 0H9.84375C4.4072 0 0 4.4072 0 9.84375V53.1562C0 58.5928 4.4072 63 9.84375 63H53.1562C58.5928 63 63 58.5928 63 53.1562V9.84375C63 4.4072 58.5928 0 53.1562 0Z" fill="white"/>
<path d="M48.9689 20.1829C48.875 19.2844 48.5727 18.4726 47.9889 17.763C47.4729 17.135 46.8109 16.6858 46.1854 16.1803C45.8726 15.9302 45.0438 15.2512 44.9396 14.8683C44.8145 14.4037 45.0074 13.9289 45.44 13.7757C46.0916 13.5613 47.181 13.5664 47.8117 13.6072C48.3486 13.6481 48.9011 13.4643 48.922 13.2499C48.9428 13.0354 48.6248 12.7189 48.2026 12.6219C47.869 12.5453 47.3582 12.4279 47.0507 12.2288C46.5033 11.8663 45.9456 11.2026 45.1846 11.0546C44.1004 10.8452 43.3446 11.2435 42.9901 12.1573C42.4272 13.4643 42.792 15.1388 43.9753 16.3641C44.507 16.9155 45.1272 17.3903 45.7215 17.8855C46.1593 18.2531 46.545 18.6564 46.9151 19.1057C47.9055 20.3157 46.8578 22.5365 46.6076 22.7918C45.7319 23.6801 44.9709 23.8435 43.4592 23.7822C41.9737 23.7209 38.1216 21.7707 36.0835 21.7094C31.0378 21.5563 27.535 23.8384 26.3517 24.4306C24.5795 25.3189 22.0566 25.3751 21.9784 25.4006C20.8369 25.4874 18.4704 25.5742 17.2976 25.9724C15.6452 26.4217 14.7539 27.1619 14.1492 28.8161C13.9616 29.5308 13.9251 30.1792 14.1909 30.5723C14.7695 31.43 16.328 32.1448 17.037 32.5379C17.4018 32.7421 18.1212 32.4868 18.2619 32.3898C19.0542 31.864 19.7527 31.4504 20.6909 31.3177C20.889 31.2871 22.213 31.0573 22.8802 31.5372C23.365 31.8844 23.782 32.0937 24.3293 32.3388C25.3301 32.7829 27.535 33.3445 27.5767 33.3547C27.8738 33.4313 28.2543 33.5794 28.2543 33.8397C28.2543 34.2073 24.7515 37.0765 24.5586 37.148C23.6777 37.5003 23.1669 38.067 23.0053 38.8838C22.9532 39.1493 22.8333 39.425 22.6821 39.6445C22.114 40.4512 19.5963 43.9534 18.9291 44.9132C18.6111 45.3625 18.2827 45.5872 17.8293 45.6586C17.1777 45.7607 16.6877 45.776 16.4114 46.2304C16.2394 46.5214 16.3489 47.0881 16.4636 47.4557C16.5939 47.8743 16.2394 48.3951 16.2134 48.4564C15.9006 49.0537 15.7703 49.6255 15.8172 50.2024C15.8329 50.4372 15.8485 50.9835 16.2446 50.9988C16.6408 51.0192 16.7451 50.7691 16.792 50.6772C16.8493 50.5649 17.0682 50.1003 17.1308 49.988C17.3862 49.5234 18.3609 48.5227 18.4704 48.4053C18.8196 48.0275 24.0322 40.9974 24.0322 40.9974C24.3188 40.6299 24.616 40.2521 25.1007 40.0683C25.7731 39.813 26.2214 39.2871 26.3517 38.5928C26.383 38.4397 28.4628 36.8774 29.3489 36.2188C29.6721 35.9789 31.632 35.208 31.6633 35.2182C31.6633 35.2335 29.8702 37.8781 29.3124 39.282C29.2238 39.5067 29.0779 40.2725 29.2395 40.6605C29.4897 41.2578 30.0266 41.5182 30.6364 41.3395C30.8241 41.2833 30.9909 41.1914 31.1525 41.1047C31.2254 41.0638 31.2984 41.0281 31.3714 40.9923C31.4444 40.9566 31.5121 40.9209 31.5851 40.8851C31.7519 40.7983 31.9135 40.7166 32.0751 40.6656C32.6745 40.4716 33.2792 40.2878 33.8838 40.104L35.1088 39.7313C35.9636 39.4709 36.8185 39.2106 37.6733 38.9553C37.861 38.8991 38.0434 38.8328 38.278 38.8379C38.4083 38.8379 38.549 38.8889 38.596 39.0778C38.596 39.088 38.695 39.6598 39.0547 39.8896C39.2371 40.007 39.628 40.0989 39.9199 40.0887C40.1753 40.0785 40.4985 40.15 40.6653 40.2929L40.879 40.4716C41.0354 40.5992 41.2283 40.6707 41.3586 40.7064C41.4941 40.7422 41.7443 40.7422 41.8903 40.5941C42.0466 40.4307 41.9893 40.1653 41.9685 40.0836C41.9372 39.9713 41.8746 39.8845 41.8277 39.8079L41.6974 39.6088C41.5723 39.4148 41.4524 39.2208 41.3221 39.0268C40.9624 38.4907 40.608 37.9598 40.2431 37.4288C39.8626 36.8774 39.2736 36.6579 38.5021 36.7753C38.205 36.8213 31.6841 38.8021 31.6372 38.8123C31.9865 38.1844 34.0767 35.356 34.6605 34.9987C35.0931 34.7485 35.2756 34.5085 36.0627 34.3758C37.6004 34.1205 40.9364 33.3649 41.7652 32.7778C43.3758 31.6342 43.5061 29.0356 43.4801 28.5149C43.4488 27.9941 43.6208 27.6367 44.0847 27.3968C44.3141 27.2794 46.7953 25.9367 48.0098 23.9558C48.7395 22.7969 49.1148 21.5563 48.9689 20.1829Z" fill="black"/>
</svg>
