<svg xmlns="http://www.w3.org/2000/svg" width="80" height="80" viewBox="0 0 80 80" fill="none">
  <path d="M54.4819 56.1231C54.2631 55.4626 53.7505 55.2584 53.1108 55.1709C50.6104 54.8271 48.1288 54.4458 45.6367 54.0978C45.1367 54.029 44.8158 53.8623 44.5783 53.3623C43.4885 51.0702 42.3341 48.8095 41.2236 46.5279C40.9402 45.9486 40.5985 45.5131 39.8879 45.5277C39.2212 45.5444 38.8961 45.9694 38.6273 46.5195C37.5063 48.824 36.354 51.1161 35.2372 53.4227C35.1695 53.6016 35.0529 53.758 34.9008 53.874C34.7487 53.99 34.5671 54.061 34.3767 54.079C31.8346 54.4374 29.2946 54.8312 26.7505 55.1792C26.1066 55.2667 25.5961 55.4563 25.3669 56.1148C25.1377 56.7732 25.4607 57.2024 25.8941 57.6233C27.2776 58.959 28.5445 60.4446 30.0614 61.6094C31.6783 62.8596 31.9367 64.2181 31.4574 66.0913C30.949 68.0437 30.7407 70.0711 30.4156 71.986C30.3802 73.2049 31.3887 73.78 32.4722 73.2174C34.7475 72.0339 37.0208 70.8483 39.2753 69.6252C39.7733 69.3543 40.138 69.3835 40.6255 69.6481C42.8571 70.8587 45.1138 72.0193 47.3579 73.207C47.8767 73.4821 48.3872 73.5758 48.8956 73.2195C49.4353 72.8424 49.5061 72.2965 49.4019 71.6922C48.9602 69.1626 48.533 66.631 48.0725 64.1056C48.022 63.896 48.0322 63.6763 48.1019 63.4722C48.1717 63.2682 48.2981 63.0882 48.4664 62.9533C50.2896 61.2135 52.0836 59.4445 53.8839 57.6879C54.3319 57.2566 54.709 56.8065 54.4819 56.1231ZM46.1077 61.624C45.3971 62.3137 45.2367 63.0054 45.4138 63.916C45.7805 65.8184 46.0868 67.7353 46.4556 69.8023C45.8868 69.5064 45.4388 69.2772 44.9971 69.0418C43.576 68.2979 42.1508 67.5561 40.736 66.7998C40.4908 66.6539 40.2107 66.577 39.9254 66.577C39.6401 66.577 39.3601 66.6539 39.1149 66.7998C37.2563 67.802 35.3956 68.7605 33.4057 69.8023C33.6328 68.425 33.837 67.1707 34.0454 65.9163C34.1033 65.3752 34.2001 64.839 34.335 64.3119C34.7517 63.0304 34.335 62.1324 33.3473 61.2385C32.0305 60.0341 30.8824 58.6464 29.678 57.3546L33.637 56.7607C34.2221 56.6444 34.8135 56.5616 35.4081 56.5128C36.3811 56.4815 36.877 55.9439 37.2625 55.1188C38.096 53.3477 38.9753 51.6057 39.9067 49.7013C40.7818 51.4745 41.6757 53.0768 42.3696 54.7625C42.8905 56.0252 43.726 56.4919 45.0179 56.6107C46.7973 56.7753 48.5601 57.1024 50.1354 57.3316C48.8185 58.7589 47.5204 60.2508 46.1077 61.624Z" fill="#686868"/>
  <path d="M57.2724 51.7765C56.4847 51.8598 55.9534 51.3097 55.8138 50.3179C55.1491 45.588 54.624 40.8435 54.1031 36.0969C53.6239 31.7212 50.5609 28.877 46.1852 28.3561C41.7691 27.8556 37.3097 27.8731 32.8977 28.4082C29.2722 28.8249 26.5092 31.3837 25.5799 35.1843C25.1507 36.9366 25.1798 38.739 24.9694 40.5143C24.5735 43.8481 24.213 47.1674 23.813 50.4908C23.6984 51.4431 23.1129 51.9056 22.3086 51.7931C21.5376 51.6827 21.1355 51.0409 21.2667 50.0929C21.8474 45.5616 22.3468 41.0213 22.7649 36.472C23.3504 30.1522 27.3156 26.262 33.6332 25.7495C35.3669 25.6078 37.1046 25.514 38.8424 25.3994H41.174C43.5327 25.5244 45.9206 25.5223 48.2168 26.1016C52.705 27.2351 55.272 30.3127 56.4347 34.6738C56.9598 36.6408 56.9119 38.689 57.1807 40.6914C57.5974 43.8044 57.9683 46.9236 58.3579 50.0387C58.4809 51.0222 58.0621 51.6931 57.2724 51.7765Z" fill="#686868"/>
  <path d="M25.5979 61.4407C25.8106 61.2657 25.9646 61.0296 26.0391 60.7644C26.1136 60.4991 26.1051 60.2174 26.0146 59.9572C25.8396 59.4446 25.4229 59.1883 24.8957 59.1112C23.0642 58.8466 21.2535 58.5507 19.4157 58.3423C19.2003 58.3341 18.992 58.2631 18.8165 58.1379C18.641 58.0128 18.506 57.839 18.428 57.6381C17.6696 56.0482 16.8653 54.4813 16.1047 52.8936C15.8255 52.3122 15.4796 51.8622 14.7858 51.8517C14.0919 51.8413 13.744 52.3122 13.4647 52.8936C12.6855 54.5042 11.877 56.0982 11.104 57.7089C11.0466 57.8781 10.9415 58.0271 10.8014 58.138C10.6613 58.2489 10.4921 58.317 10.3143 58.334C8.48897 58.5507 6.66785 58.8424 4.84257 59.0924C4.25914 59.1716 3.80074 59.3842 3.57779 59.9655C3.34025 60.5906 3.60279 61.0636 4.04452 61.4907C5.20304 62.6097 6.31363 63.7828 7.52215 64.8454C8.23476 65.4705 8.41187 66.0685 8.20351 66.9916C7.82428 68.6835 7.59925 70.413 7.33046 72.0174C7.33046 73.1926 8.30352 73.7677 9.30576 73.2676C10.9227 72.4466 12.5334 71.6111 14.119 70.7359C14.6066 70.4671 14.9733 70.4421 15.4692 70.7151C17.0528 71.5965 18.6676 72.4237 20.2721 73.2655C20.768 73.526 21.2722 73.5655 21.7306 73.2092C21.9411 73.0542 22.1006 72.84 22.1889 72.594C22.2772 72.348 22.2903 72.0813 22.2265 71.8278C21.8994 69.99 21.6014 68.1459 21.2597 66.3082C21.213 66.1371 21.2164 65.9561 21.2696 65.7869C21.3228 65.6178 21.4235 65.4674 21.5598 65.3538C22.9204 64.0578 24.2519 62.7388 25.5979 61.4407ZM19.2448 63.9995C18.9566 64.2396 18.7426 64.5567 18.6279 64.9138C18.5132 65.271 18.5024 65.6534 18.5968 66.0164C18.8052 67.0312 18.9719 68.0543 19.1469 69.0753C19.1802 69.269 19.2615 69.4753 19.0948 69.7233C17.955 69.1294 16.8028 68.5523 15.6755 67.9292C15.4141 67.7634 15.111 67.6753 14.8014 67.6753C14.4919 67.6753 14.1887 67.7634 13.9273 67.9292C12.7792 68.5731 11.5978 69.1544 10.3184 69.8191C10.5539 68.4106 10.7352 67.1104 10.9998 65.8352C11.0736 65.5339 11.0632 65.2182 10.9699 64.9224C10.8766 64.6266 10.7038 64.3622 10.4705 64.1578C9.5433 63.2264 8.65149 62.2596 7.7326 61.2928C9.00363 61.1011 10.3205 60.8761 11.6436 60.7156C11.94 60.6877 12.2227 60.5778 12.4601 60.3982C12.6975 60.2186 12.8801 59.9764 12.9876 59.6988C13.5439 58.5049 14.1503 57.338 14.7941 56.0503C15.4067 57.288 15.9964 58.434 16.5402 59.5925C16.8528 60.2635 17.3049 60.6344 18.0655 60.7281C19.3511 60.874 20.6305 61.0907 21.8327 61.2657C20.9597 62.2013 20.1491 63.1493 19.2448 63.9995Z" fill="#686868"/>
  <path d="M75.8085 61.4888C76.1239 61.2139 76.3234 60.8298 76.3669 60.4136C76.3669 59.7656 75.8856 59.2239 75.15 59.1134C73.3289 58.8384 71.5078 58.5592 69.6804 58.3342C69.4655 58.3259 69.2578 58.2542 69.0835 58.1282C68.9093 58.0021 68.7762 57.8273 68.7011 57.6257C67.951 56.0317 67.1467 54.4627 66.3778 52.8791C66.1007 52.3061 65.7527 51.8373 65.0526 51.8519C64.3525 51.8665 64.0108 52.3145 63.7378 52.8937C62.9669 54.5044 62.1584 56.0984 61.3729 57.7028C61.2187 58.0174 61.0645 58.2571 60.6561 58.3092C58.8287 58.5509 57.0097 58.8447 55.1844 59.0843C54.5697 59.1655 54.0572 59.3572 53.8446 59.9698C53.6321 60.5824 53.905 61.1075 54.3759 61.5576C55.6741 62.7932 56.9389 64.058 58.2349 65.3082C58.3844 65.4255 58.4971 65.5833 58.5596 65.7628C58.622 65.9423 58.6315 66.136 58.587 66.3208C58.2557 68.1065 57.9848 69.9026 57.6473 71.6862C57.5306 72.3113 57.6015 72.8281 58.1182 73.2136C58.635 73.599 59.1767 73.4844 59.7205 73.1927C61.3187 72.3363 62.9356 71.5154 64.5275 70.6507C64.6873 70.5482 64.8732 70.4937 65.063 70.4937C65.2529 70.4937 65.4387 70.5482 65.5985 70.6507C67.1467 71.4841 68.7136 72.2988 70.2659 73.1302C70.8431 73.4407 71.4161 73.6511 72.01 73.2115C72.6038 72.7718 72.56 72.1551 72.4475 71.5133C72.1412 69.7776 71.8766 68.0315 71.537 66.3041C71.4474 65.8395 71.5932 65.5895 71.8954 65.3019C73.2081 64.0309 74.4999 62.7515 75.8085 61.4888ZM69.6929 63.8308C68.9741 64.4893 68.6511 65.1519 68.8949 66.1562C69.1824 67.3064 69.3116 68.4962 69.5367 69.8047C68.3385 69.1796 67.2175 68.6233 66.1299 68.0065C65.8149 67.8014 65.4472 67.6923 65.0714 67.6923C64.6955 67.6923 64.3278 67.8014 64.0129 68.0065C62.944 68.6316 61.8271 69.165 60.5915 69.8109C60.7999 68.5128 60.9603 67.3376 61.2166 66.1854C61.425 65.2519 61.2166 64.556 60.5019 63.8934C59.6247 63.0912 58.8558 62.1702 58.0286 61.2867C59.2413 61.1033 60.5498 60.8804 61.8646 60.722C62.1741 60.6973 62.4705 60.5867 62.7204 60.4027C62.9704 60.2186 63.164 59.9684 63.2794 59.6802C63.8462 58.4946 64.4379 57.3215 65.0589 56.063C65.6986 57.3507 66.3091 58.5217 66.8633 59.7115C66.9726 59.9885 67.1567 60.2297 67.3951 60.4082C67.6336 60.5866 67.9169 60.6953 68.2135 60.722C69.5262 60.8866 70.8306 61.1013 72.1496 61.2992C71.3265 62.1473 70.5556 63.0411 69.6929 63.8308Z" fill="#686868"/>
  <path d="M47.8846 11.6287C45.8739 7.08429 39.8667 5.29859 35.243 7.7969C32.0404 9.52633 30.5235 12.6789 31.0319 16.5649C31.5779 20.7593 34.9909 24.5099 38.8207 25.1413H40.7147C43.2589 24.7391 45.1612 23.3264 46.5635 21.2532C48.5722 18.2798 49.4057 15.0709 47.8846 11.6287ZM42.1608 21.9053C40.5918 22.8784 38.9707 22.8638 37.3684 21.9574C34.8325 20.5239 33.1031 16.9358 33.5469 14.0541C33.9637 11.3745 36.2265 9.51383 39.3666 9.27838C42.5067 9.04292 45.23 10.8745 45.9009 13.7353C45.9828 14.1671 46.0392 14.6034 46.0697 15.0418C45.9072 18.0464 44.6674 20.3509 42.1608 21.9053Z" fill="#686868"/>
  <path d="M51.1316 50.4619C51.1528 50.7902 51.0438 51.1137 50.8281 51.3622C50.6124 51.6107 50.3074 51.7641 49.9793 51.7892C49.1709 51.8621 48.6083 51.3558 48.5395 50.414C48.3041 47.228 48.0936 44.0421 47.8748 40.8562C47.804 39.8144 47.7186 38.7851 47.679 37.7474C47.6498 36.9681 48.1436 36.4118 48.8458 36.3534C49.0148 36.3421 49.1844 36.3645 49.3447 36.4192C49.5051 36.4738 49.653 36.5597 49.7799 36.6719C49.9068 36.7841 50.0102 36.9204 50.0842 37.0728C50.1581 37.2252 50.2011 37.3907 50.2106 37.5599C50.5232 41.8064 50.819 46.0487 51.1316 50.4619Z" fill="#686868"/>
  <path d="M31.8297 37.7706C31.5234 42.2067 31.2546 46.1052 30.9837 50.0184C30.9706 50.2519 30.9427 50.4843 30.9004 50.7143C30.8547 51.0384 30.6838 51.3316 30.4244 51.5311C30.1649 51.7306 29.8376 51.8203 29.5126 51.7811C29.1996 51.7592 28.9074 51.6166 28.6975 51.3833C28.4876 51.1501 28.3764 50.8445 28.3875 50.5309C28.4021 49.6766 28.4833 48.8223 28.5417 47.968C28.7688 44.6821 28.9855 41.3962 29.2313 38.1123C29.323 36.8746 29.8273 36.2975 30.6503 36.3704C31.4734 36.4433 31.863 37.0559 31.8297 37.7706Z" fill="#686868"/>
</svg>