<svg xmlns="http://www.w3.org/2000/svg" width="80" height="80" viewBox="0 0 80 80" fill="none">
  <path d="M71.9617 69.8361C71.6804 67.2815 71.3366 64.7353 71.1178 62.1745C70.9695 60.3382 70.2428 58.5962 69.0421 57.1989C67.8414 55.8017 66.2286 54.8211 64.4355 54.3983C63.2103 54.1211 61.9476 54.1295 60.5974 53.9107C60.8974 53.7294 61.0912 53.6148 61.2829 53.494C63.9687 51.8145 65.5898 48.1327 64.9418 45.2156C64.2292 42.0234 61.5142 40.0064 57.9907 40.0669C54.6173 40.121 51.9877 42.263 51.4105 45.4552C51.0626 47.3888 51.571 49.1579 52.542 50.8185C53.307 52.1451 54.4464 53.2163 55.8175 53.8982C54.2485 54.0941 52.8024 54.2441 51.3689 54.4712C50.9521 54.5379 50.6521 54.5233 50.3062 54.2628C49.104 53.3491 47.6947 52.7464 46.2035 52.5084C44.8616 52.2771 43.4947 52.2834 42.0362 52.0812C42.2049 51.9708 42.2612 51.927 42.3237 51.8958C45.4117 50.3664 47.0098 47.7889 47.3641 44.4509C47.7808 40.617 45.072 37.4144 40.9235 36.8914C35.4851 36.2038 31.3574 40.6044 32.7201 45.8511C33.4556 48.687 35.0892 50.8019 37.9522 52.1021C37.2041 52.1563 36.6395 52.2042 36.0769 52.2375C33.6411 52.3855 31.2699 52.7397 29.3029 54.3753C29.1841 54.4754 29.0654 54.5837 28.8862 54.5483C27.3172 54.1649 25.6961 54.1316 23.9792 53.9024C24.3021 53.7148 24.5022 53.6044 24.698 53.4856C27.3755 51.8333 28.9633 48.2765 28.384 45.226C27.7443 41.8567 24.298 39.6001 20.5891 40.1065C16.7551 40.6378 14.3381 43.6903 14.8277 47.5159C15.184 50.3185 16.6551 52.425 19.2597 53.919L17.0489 54.117C12.5024 54.5191 9.16851 57.6467 8.73511 61.8724C8.4309 64.8436 8.07251 67.8066 7.72454 70.7717C7.66929 71.1711 7.69819 71.5777 7.80939 71.9654C7.92059 72.353 8.11164 72.7131 8.37025 73.0226C8.62887 73.332 8.94934 73.5839 9.31109 73.7622C9.67284 73.9404 10.0679 74.0411 10.4708 74.0576C11.4043 74.0951 12.3461 74.0576 13.2775 74.068C13.7901 74.068 14.2485 73.8596 14.4256 73.4117C14.6027 72.9637 14.9132 72.9741 15.2757 72.9741C18.4012 72.9741 21.5121 72.9887 24.6293 72.9741C25.1627 72.9741 25.6086 73.0283 26.0316 73.4304C26.5012 73.8534 27.1145 74.0814 27.7464 74.068C28.7341 74.068 29.7217 74.068 30.7094 74.068C31.3345 74.068 31.7783 73.7763 31.9471 73.197C32.0554 72.8241 32.2013 72.7032 32.5826 72.7053C37.4667 72.715 42.3515 72.715 47.237 72.7053C47.5745 72.7053 47.7475 72.7886 47.8433 73.122C48.0267 73.7867 48.5122 74.068 49.1894 74.0618C50.1228 74.0618 51.0647 74.0618 51.994 74.0618C52.7561 74.0835 53.4959 73.8034 54.0526 73.2825C54.1619 73.1745 54.2924 73.0904 54.4359 73.0355C54.5793 72.9806 54.7327 72.9562 54.8861 72.9637C58.1324 72.9734 61.3802 72.9734 64.6293 72.9637C64.9564 72.9637 65.2002 72.9803 65.3544 73.3596C65.5627 73.8617 66.0087 74.0638 66.5504 74.0597C67.486 74.0597 68.4257 74.0805 69.3571 74.0597C70.0789 74.0389 70.765 73.7409 71.2729 73.2276C71.7808 72.7142 72.0715 72.025 72.0846 71.303C72.0765 70.8118 72.0355 70.3218 71.9617 69.8361ZM53.8943 46.3991C53.9338 44.0654 56.0342 42.4193 58.5117 42.6381C60.9558 42.8465 62.5644 44.4717 62.5039 46.8596C62.4354 47.7235 62.1778 48.5618 61.7493 49.3151C61.3208 50.0684 60.7319 50.7182 60.0244 51.2186C58.9596 51.975 57.7782 52.0917 56.6572 51.404C54.8132 50.2726 53.8568 48.5494 53.8943 46.3991ZM37.8167 49.0808C35.7331 47.6097 34.7913 45.5719 35.108 43.0382C35.3664 40.9691 37.2396 39.5272 39.692 39.3897C42.6613 39.223 44.8845 41.2525 44.7803 44.5676C44.6866 46.1136 43.8218 47.7827 42.1487 49.0037C40.7318 50.0288 39.2316 50.0851 37.8167 49.0808ZM17.3115 46.9679C17.299 44.23 19.2784 42.4881 21.8184 42.6298C24.971 42.8048 26.6483 45.3093 25.6065 48.2911C25.1752 49.5246 24.473 50.5664 23.3603 51.2811C22.1997 52.0312 20.9933 52.0437 19.8535 51.2686C19.1324 50.7904 18.529 50.155 18.0887 49.4101C17.6484 48.6653 17.3827 47.8303 17.3115 46.9679ZM26.9255 57.1779C25.9878 58.8281 25.8357 60.6763 25.5982 62.4974C25.294 64.8374 25.0335 67.1857 24.7793 69.534C24.7147 70.132 24.5584 70.4299 23.8458 70.3799C22.7081 70.2966 21.5538 70.357 20.4182 70.357C19.2826 70.357 18.1803 70.2924 17.0697 70.3778C16.2134 70.4445 16.0571 70.1236 16.0717 69.3485C16.1113 67.4545 16.055 65.5563 16.0425 63.6601C16.0425 63.1746 15.9425 62.7246 15.5716 62.3891C14.9048 61.7932 13.8818 62.2162 13.7213 63.183C13.3046 65.7146 12.8878 68.2504 12.517 70.7904C12.4357 71.3572 12.2607 71.5905 11.7002 71.4989C11.6225 71.4926 11.5445 71.4926 11.4668 71.4989C10.1999 71.4989 10.1916 71.4676 10.3437 70.2487C10.6437 67.8274 10.9271 65.4042 11.1938 62.9788C11.646 58.7948 13.4504 57.0174 17.6344 56.6299C20.6115 56.362 23.6085 56.4102 26.5754 56.7736C26.8171 56.8007 27.1776 56.7424 26.9255 57.1862V57.1779ZM51.0959 71.4968C50.3291 71.7051 50.1041 71.2884 49.9936 70.4549C49.6478 67.8316 49.1935 65.225 48.781 62.612C48.7601 62.4829 48.731 62.3578 48.7039 62.2307C48.5309 61.4119 48.0433 60.9618 47.362 60.9805C46.6806 60.9993 46.1493 61.5598 46.1243 62.4162C46.0722 64.3373 46.0493 66.2585 46.0139 68.1817C45.9899 68.6481 45.9899 69.1155 46.0139 69.5819C46.0597 70.0924 45.8847 70.2257 45.3742 70.2216C42.0903 70.2195 38.7815 70.2195 35.483 70.2195C33.8703 70.2195 33.8703 70.2195 33.8578 68.6067C33.839 66.6856 33.8245 64.7645 33.8015 62.8413C33.8037 62.5827 33.7764 62.3248 33.7203 62.0724C33.5577 61.3889 33.141 60.9472 32.4055 61.0014C31.67 61.0556 31.2991 61.489 31.1886 62.1995C30.7344 65.0958 30.251 67.9858 29.8259 70.8863C29.7509 71.4051 29.5717 71.5114 29.0966 71.5114C26.9296 71.5114 27.2651 71.5114 27.463 69.7903C27.811 66.7752 28.0756 63.7476 28.5382 60.7472C29.0758 57.2591 31.172 55.3297 34.635 54.9233C38.4559 54.4651 42.3203 54.5064 46.1305 55.0463C48.6684 55.4088 50.7646 57.4571 51.273 60.3159C51.6689 62.5329 51.8148 64.7957 52.0773 67.0377C52.194 68.0421 52.3086 69.0485 52.4503 70.0507C52.6566 71.5072 52.667 71.5051 51.1042 71.5051L51.0959 71.4968ZM68.7341 71.5072C67.3839 71.5072 67.3943 71.5322 67.1797 70.1382C66.8296 67.8566 66.4629 65.5792 66.1024 63.3017C65.9816 62.5412 65.5336 62.112 64.8897 62.1307C64.2459 62.1495 63.7875 62.6537 63.7708 63.4663C63.727 65.55 63.6854 67.6191 63.6895 69.6944C63.6895 70.2487 63.5208 70.3758 62.9873 70.3695C60.5745 70.3403 58.1609 70.3403 55.7466 70.3695C55.2361 70.3695 55.1007 70.207 55.0319 69.7257C54.5694 66.4647 54.3839 63.1705 53.8047 59.9325C53.6226 58.8508 53.2546 57.8089 52.717 56.8528C55.9743 56.3821 59.2781 56.3247 62.5498 56.682C63.3457 56.7716 64.1542 56.8132 64.9064 57.1362C67.3318 58.178 68.3424 60.1971 68.5799 62.6579C68.8362 65.3187 69.1279 67.9733 69.5071 70.6175C69.5946 71.2613 69.4154 71.5176 68.7424 71.5155L68.7341 71.5072Z" fill="#686868"/>
  <path d="M33.2753 16.6167C33.2752 16.9457 33.1779 17.2673 32.9954 17.5411C32.813 17.8148 32.5537 18.0285 32.25 18.1551C31.9464 18.2818 31.6121 18.3157 31.2892 18.2527C30.9663 18.1898 30.6693 18.0327 30.4355 17.8012C30.2017 17.5697 30.0417 17.2743 29.9755 16.952C29.9093 16.6298 29.9399 16.2952 30.0636 15.9903C30.1872 15.6854 30.3982 15.424 30.6702 15.2388C30.9421 15.0537 31.2627 14.9531 31.5917 14.9498C31.813 14.9439 32.0332 14.9828 32.239 15.0643C32.4449 15.1457 32.6321 15.268 32.7894 15.4238C32.9467 15.5795 33.0709 15.7655 33.1544 15.9705C33.2379 16.1756 33.279 16.3954 33.2753 16.6167Z" fill="#686868"/>
  <path d="M41.6141 16.6279C41.6191 16.9634 41.5242 17.2929 41.3414 17.5744C41.1586 17.8558 40.8962 18.0766 40.5877 18.2085C40.2791 18.3405 39.9383 18.3777 39.6085 18.3154C39.2787 18.2532 38.9749 18.0943 38.7357 17.8589C38.4965 17.6235 38.3327 17.3223 38.2651 16.9935C38.1975 16.6648 38.2293 16.3234 38.3562 16.0128C38.4832 15.7021 38.6997 15.4362 38.9782 15.2489C39.2566 15.0617 39.5845 14.9614 39.9201 14.961C40.3654 14.9587 40.7935 15.1328 41.1109 15.4451C41.4283 15.7574 41.6092 16.1826 41.6141 16.6279Z" fill="#686868"/>
  <path d="M49.9095 16.669C49.9012 16.9985 49.7954 17.3181 49.6055 17.5874C49.4156 17.8567 49.1501 18.0638 48.8426 18.1823C48.5351 18.3008 48.1994 18.3255 47.8778 18.2533C47.5563 18.1811 47.2633 18.0152 47.0361 17.7765C46.8088 17.5379 46.6573 17.2372 46.6008 16.9126C46.5444 16.5879 46.5854 16.2537 46.7187 15.9524C46.8521 15.651 47.0718 15.3959 47.3501 15.2194C47.6283 15.0428 47.9527 14.9527 48.2822 14.9604C48.5024 14.9619 48.72 15.0077 48.9221 15.0951C49.1242 15.1826 49.3067 15.3098 49.4585 15.4693C49.6104 15.6287 49.7286 15.8171 49.8061 16.0233C49.8836 16.2294 49.9187 16.449 49.9095 16.669Z" fill="#686868"/>
  <path d="M74.4475 11.9021C74.4475 8.25157 72.2847 6.09082 68.6445 6.09082H39.963C30.3267 6.09082 20.6884 6.09082 11.048 6.09082C7.64957 6.0929 5.41797 8.28075 5.41797 11.6688C5.39713 14.9679 5.39713 18.2677 5.41797 21.5682C5.43672 24.9667 7.64749 27.1462 11.0439 27.1504C14.2131 27.1504 17.3823 27.1712 20.5516 27.1337C21.2142 27.1337 21.3705 27.3233 21.3538 27.9567C21.3142 29.4632 21.3725 30.9718 21.3538 32.4783C21.3538 33.1763 21.458 33.7889 22.1873 34.0702C22.9165 34.3515 23.4124 33.9577 23.8709 33.4451C25.5857 31.4948 27.3193 29.5612 29.0279 27.6108C29.1411 27.4589 29.2897 27.3368 29.4606 27.2551C29.6316 27.1734 29.82 27.1346 30.0093 27.142C31.8027 27.1684 33.5953 27.1684 35.3872 27.142C35.5612 27.1158 35.7387 27.1535 35.887 27.2481C36.0352 27.3427 36.1442 27.4879 36.1936 27.6567C36.95 29.4153 37.7564 31.1552 38.5273 32.9075C38.8107 33.5534 39.1232 34.1577 39.9421 34.1452C40.761 34.1327 41.0527 33.5201 41.334 32.8763C42.105 31.1218 42.9092 29.382 43.6781 27.6275C43.7247 27.4713 43.8253 27.3367 43.9619 27.2478C44.0986 27.1589 44.2624 27.1214 44.4241 27.142C46.2952 27.167 48.1656 27.167 50.0354 27.142C50.2378 27.1324 50.4395 27.1721 50.6232 27.2578C50.8069 27.3435 50.967 27.4725 51.0897 27.6338C52.8025 29.5862 54.5381 31.5177 56.2593 33.468C56.6989 33.9639 57.1677 34.3431 57.8783 34.0764C58.5888 33.8097 58.7596 33.2055 58.7596 32.5054C58.7596 30.9468 58.7951 29.3799 58.7596 27.8296C58.7596 27.29 58.8805 27.1399 59.4347 27.1441C62.5248 27.1754 65.617 27.1608 68.7091 27.1587C72.2513 27.1587 74.4329 24.9729 74.4413 21.4328C74.4524 18.249 74.4545 15.0721 74.4475 11.9021ZM71.8867 21.5224C71.8867 23.4664 70.8074 24.577 68.8591 24.5875C65.2502 24.6041 61.6393 24.5875 58.0241 24.5875C56.5906 24.5875 56.2217 24.9458 56.2072 26.3669C56.1967 27.3275 56.2072 28.288 56.2072 29.2486L56.0405 29.3278C54.859 28.0005 53.6588 26.6857 52.4982 25.3355C52.299 25.0818 52.0421 24.8794 51.749 24.7449C51.4558 24.6105 51.1348 24.5479 50.8126 24.5625C48.3455 24.5875 45.8785 24.5875 43.4114 24.5625C42.5779 24.5625 42.0612 24.875 41.7445 25.6543C41.2006 26.9628 40.5901 28.2401 39.9338 29.6945C39.3087 28.3193 38.7211 27.1004 38.2189 25.8439C37.8522 24.9229 37.2834 24.5312 36.2707 24.5541C33.9599 24.6104 31.6471 24.5895 29.3363 24.5541C29.0017 24.5364 28.6677 24.5993 28.3624 24.7374C28.0571 24.8756 27.7894 25.085 27.5819 25.348C26.4233 26.7045 25.219 28.0192 23.8813 29.5153C23.8813 28.2651 23.8813 27.2233 23.8813 26.169C23.8813 25.0021 23.452 24.5645 22.2873 24.5625C18.6263 24.5625 14.9632 24.5625 11.3001 24.5625C8.97686 24.5625 7.98296 23.5686 7.98296 21.2494C7.98296 18.0545 7.98296 14.8596 7.98296 11.6646C7.98296 9.76014 9.06437 8.64539 10.9626 8.64539C30.2864 8.63705 49.6103 8.63705 68.9342 8.64539C70.7886 8.64539 71.8825 9.76848 71.8867 11.6146C71.8867 14.9207 71.8867 18.2233 71.8867 21.5224Z" fill="#686868"/>
  <path d="M33.2753 16.6167C33.2752 16.9457 33.1779 17.2673 32.9954 17.5411C32.813 17.8148 32.5537 18.0285 32.25 18.1551C31.9464 18.2818 31.6121 18.3157 31.2892 18.2527C30.9663 18.1898 30.6693 18.0327 30.4355 17.8012C30.2017 17.5697 30.0417 17.2743 29.9755 16.952C29.9093 16.6298 29.9399 16.2952 30.0636 15.9903C30.1872 15.6854 30.3982 15.424 30.6702 15.2388C30.9421 15.0537 31.2627 14.9531 31.5917 14.9498C31.813 14.9439 32.0332 14.9828 32.239 15.0643C32.4449 15.1457 32.6321 15.268 32.7894 15.4238C32.9467 15.5795 33.0709 15.7655 33.1544 15.9705C33.2379 16.1756 33.279 16.3954 33.2753 16.6167Z" fill="#FEFEFE"/>
  <path d="M41.6141 16.6279C41.6191 16.9634 41.5242 17.2929 41.3414 17.5744C41.1586 17.8558 40.8962 18.0766 40.5877 18.2085C40.2791 18.3405 39.9383 18.3777 39.6085 18.3154C39.2787 18.2532 38.9749 18.0943 38.7357 17.8589C38.4965 17.6235 38.3327 17.3223 38.2651 16.9935C38.1975 16.6648 38.2293 16.3234 38.3562 16.0128C38.4832 15.7021 38.6997 15.4362 38.9782 15.2489C39.2566 15.0617 39.5845 14.9614 39.9201 14.961C40.3654 14.9587 40.7935 15.1328 41.1109 15.4451C41.4283 15.7574 41.6092 16.1826 41.6141 16.6279Z" fill="#FEFEFE"/>
  <path d="M49.9095 16.669C49.9012 16.9985 49.7954 17.3181 49.6055 17.5874C49.4156 17.8567 49.1501 18.0638 48.8426 18.1823C48.5351 18.3008 48.1994 18.3255 47.8778 18.2533C47.5563 18.1811 47.2633 18.0152 47.0361 17.7765C46.8088 17.5379 46.6573 17.2372 46.6008 16.9126C46.5444 16.5879 46.5854 16.2537 46.7187 15.9524C46.8521 15.651 47.0718 15.3959 47.3501 15.2194C47.6283 15.0428 47.9527 14.9527 48.2822 14.9604C48.5024 14.9619 48.72 15.0077 48.9221 15.0951C49.1242 15.1826 49.3067 15.3098 49.4585 15.4693C49.6104 15.6287 49.7286 15.8171 49.8061 16.0233C49.8836 16.2294 49.9187 16.449 49.9095 16.669Z" fill="#FEFEFE"/>
  <path d="M41.6141 16.6279C41.6191 16.9634 41.5242 17.2929 41.3414 17.5744C41.1586 17.8558 40.8962 18.0766 40.5877 18.2085C40.2791 18.3405 39.9383 18.3777 39.6085 18.3154C39.2787 18.2532 38.9749 18.0943 38.7357 17.8589C38.4965 17.6235 38.3327 17.3223 38.2651 16.9935C38.1975 16.6648 38.2293 16.3234 38.3562 16.0128C38.4832 15.7021 38.6997 15.4362 38.9782 15.2489C39.2566 15.0617 39.5845 14.9614 39.9201 14.961C40.3654 14.9587 40.7935 15.1328 41.1109 15.4451C41.4283 15.7574 41.6092 16.1826 41.6141 16.6279Z" fill="#686868"/>
  <path d="M33.2753 16.6167C33.2752 16.9457 33.1779 17.2673 32.9954 17.5411C32.813 17.8148 32.5537 18.0285 32.25 18.1551C31.9464 18.2818 31.6121 18.3157 31.2892 18.2527C30.9663 18.1898 30.6693 18.0327 30.4355 17.8012C30.2017 17.5697 30.0417 17.2743 29.9755 16.952C29.9093 16.6298 29.9399 16.2952 30.0636 15.9903C30.1872 15.6854 30.3982 15.424 30.6702 15.2388C30.9421 15.0537 31.2627 14.9531 31.5917 14.9498C31.813 14.9439 32.0332 14.9828 32.239 15.0643C32.4449 15.1457 32.6321 15.268 32.7894 15.4238C32.9467 15.5795 33.0709 15.7655 33.1544 15.9705C33.2379 16.1756 33.279 16.3954 33.2753 16.6167Z" fill="#686868"/>
  <path d="M49.9095 16.669C49.9012 16.9985 49.7954 17.3181 49.6055 17.5874C49.4156 17.8567 49.1501 18.0638 48.8426 18.1823C48.5351 18.3008 48.1994 18.3255 47.8778 18.2533C47.5563 18.1811 47.2633 18.0152 47.0361 17.7765C46.8088 17.5379 46.6573 17.2372 46.6008 16.9126C46.5444 16.5879 46.5854 16.2537 46.7187 15.9524C46.8521 15.651 47.0718 15.3959 47.3501 15.2194C47.6283 15.0428 47.9527 14.9527 48.2822 14.9604C48.5024 14.9619 48.72 15.0077 48.9221 15.0951C49.1242 15.1826 49.3067 15.3098 49.4585 15.4693C49.6104 15.6287 49.7286 15.8171 49.8061 16.0233C49.8836 16.2294 49.9187 16.449 49.9095 16.669Z" fill="#686868"/>
</svg>